<?xml version="1.0" encoding="utf-8"?>
<!-- Generator: Adobe Illustrator 23.0.3, SVG Export Plug-In . SVG Version: 6.00 Build 0)  -->
<svg version="1.1" id="Layer_1" xmlns="http://www.w3.org/2000/svg" xmlns:xlink="http://www.w3.org/1999/xlink" x="0px" y="0px"
	 viewBox="0 0 196 196" style="enable-background:new 0 0 196 196;" xml:space="preserve">
<style type="text/css">
	.st0{fill-rule:evenodd;clip-rule:evenodd;fill:url(#SVGID_1_);stroke:#D9D9D9;stroke-width:0.8351;}
	.st1{fill-rule:evenodd;clip-rule:evenodd;fill:url(#SVGID_2_);}
	.st2{fill-rule:evenodd;clip-rule:evenodd;fill:url(#SVGID_3_);}
	.st3{fill-rule:evenodd;clip-rule:evenodd;fill:url(#SVGID_4_);}
</style>
<linearGradient id="SVGID_1_" gradientUnits="userSpaceOnUse" x1="-197.4742" y1="516.725" x2="-197.4742" y2="516.3076" gradientTransform="matrix(194 0 0 -194 38408 100342.6563)">
	<stop  offset="0" style="stop-color:#FFFFFF"/>
	<stop  offset="1" style="stop-color:#E9E5E5"/>
</linearGradient>
<path class="st0" d="M54.6,17h86.8c20.8,0,37.6,16.8,37.6,37.6v86.8c0,20.8-16.8,37.6-37.6,37.6H54.6C33.8,179,17,162.2,17,141.4
	V54.6C17,33.8,33.8,17,54.6,17z"/>
<linearGradient id="SVGID_2_" gradientUnits="userSpaceOnUse" x1="-168.7886" y1="514.9072" x2="-168.7886" y2="514.1802" gradientTransform="matrix(7.0722 0 0 -82.8937 1235.3876 42744.3633)">
	<stop  offset="0" style="stop-color:#0339F1"/>
	<stop  offset="1" style="stop-color:#01ADE5"/>
</linearGradient>
<path class="st1" d="M43.6,131h-3.8V80.1h3.8V131z M41.7,67.6c-1.6,0-2.9-1.3-2.9-2.9c0-1.7,1.3-2.9,2.9-2.9c1.7,0,3,1.3,3,2.9
	C44.6,66.3,43.3,67.6,41.7,67.6z"/>
<linearGradient id="SVGID_3_" gradientUnits="userSpaceOnUse" x1="-196.0234" y1="514.8812" x2="-195.5258" y2="514.3317" gradientTransform="matrix(72.81 0 0 -84.087 14330.9854 43363.5508)">
	<stop  offset="0" style="stop-color:#0756EE"/>
	<stop  offset="0.3745" style="stop-color:#00A3F5"/>
	<stop  offset="0.7171" style="stop-color:#18B5B6"/>
	<stop  offset="1" style="stop-color:#80DF43"/>
</linearGradient>
<path class="st2" d="M80.6,132c-18.6,0-30.4-13.6-30.4-35.1c0-21.5,11.8-35.1,30.4-35.1S111,75.4,111,96.9
	C111,118.4,99.3,132,80.6,132z M80.6,65.3c-16.2,0-26.6,12.2-26.6,31.6c0,19.3,10.4,31.6,26.6,31.6c16.2,0,26.6-12.3,26.6-31.6
	C107.2,77.5,96.9,65.3,80.6,65.3L80.6,65.3z"/>
<linearGradient id="SVGID_4_" gradientUnits="userSpaceOnUse" x1="-195.5235" y1="514.9251" x2="-194.9087" y2="514.1927" gradientTransform="matrix(57.9167 0 0 -84.0801 11443.082 43359.9688)">
	<stop  offset="0" style="stop-color:#20BBA6"/>
	<stop  offset="0.4988" style="stop-color:#9BEC23"/>
	<stop  offset="1" style="stop-color:#D9EF35"/>
</linearGradient>
<path class="st3" d="M138.2,132c-14,0-24-7.9-24.6-19.2h3.7c0.6,9.3,9.3,15.7,21.1,15.7c11.6,0,19.7-6.6,19.7-15.5
	c0-7.1-4.8-11.3-16.3-14.1l-8.1-2c-12.6-3.2-18.3-8.3-18.3-16.9c0-10.6,9.9-18.3,22.4-18.3c12.9,0,22.5,7.6,22.9,17.6h-3.7
	c-0.5-8.2-8.5-14.1-19.2-14.1c-10.3,0-18.4,6.1-18.4,14.8c0,6.8,5,10.7,16,13.5l7.6,1.9c13.2,3.3,19.1,8.3,19.1,17.4
	C161.9,124.1,152.4,132,138.2,132L138.2,132z"/>
</svg>
