<?xml version="1.0" encoding="utf-8"?>
<!-- Generator: Adobe Illustrator 23.0.3, SVG Export Plug-In . SVG Version: 6.00 Build 0)  -->
<svg version="1.1" id="Layer_1" xmlns:sketch="http://www.bohemiancoding.com/sketch/ns"
	 xmlns="http://www.w3.org/2000/svg" xmlns:xlink="http://www.w3.org/1999/xlink" x="0px" y="0px" viewBox="0 0 436.8 129.2"
	 style="enable-background:new 0 0 436.8 129.2;" xml:space="preserve">
<style type="text/css">
	.st0{fill-rule:evenodd;clip-rule:evenodd;fill:#3498DB;}
</style>
<title>xamarin-logo</title>
<desc>Created with Sketch.</desc>
<g id="Page-1" sketch:type="MSPage">
	<g id="xamarin-logo" sketch:type="MSArtboardGroup">
		<path id="Logo" sketch:type="MSShapeGroup" class="st0" d="M178.3,90.3l-10.3-19.8l-10.6,19.8H146l16.1-25.5l-14.5-25.4h11.5
			l9.4,19.3l10.2-19.3h10.5l-14.9,25.2l15.1,25.7H178.3z M215,90.3v-5.5h-0.2c-2.8,4.4-6.8,6.5-11.9,6.5c-4,0-7.1-1.1-9.3-3.2
			c-2.3-2.2-3.4-5.1-3.4-8.7c0-7.8,4.4-12.3,13.2-13.3l11.7-1.6c0-5.5-2.5-8.2-7.6-8.2c-4.8,0-9.3,1.5-13.3,4.5v-8
			c1.5-0.9,3.7-1.7,6.5-2.5c2.9-0.7,5.4-1.1,7.8-1.1c10.4,0,15.5,5.2,15.5,15.7v25.5H215L215,90.3z M206.4,71.9
			c-2.7,0.3-4.6,1-5.7,2c-1.1,1-1.6,2.5-1.6,4.5c0,1.7,0.6,3.1,1.8,4.1c1.2,1,2.8,1.6,4.8,1.6c2.7,0,4.9-0.9,6.7-2.8
			c1.8-1.9,2.6-4.2,2.6-7v-3.6L206.4,71.9L206.4,71.9z M281.9,90.3V67.6c0-3.7-0.6-6.5-1.8-8.3c-1.2-1.8-3.2-2.8-6.2-2.8
			c-2.4,0-4.4,1.1-6,3.3c-1.6,2.2-2.4,4.8-2.4,7.9v22.6h-9.1V66.8c0-6.9-2.6-10.3-7.9-10.3c-2.5,0-4.5,1-6.1,3.1
			c-1.6,2.1-2.4,4.8-2.4,8.1v22.6H231V50.1h9.1v6.2h0.2c2.9-4.8,7.1-7.2,12.7-7.2c2.7,0,5,0.7,7.1,2.1c2.1,1.4,3.5,3.3,4.4,5.8
			c3.1-5.3,7.6-7.9,13.5-7.9c8.7,0,13.1,5.5,13.1,16.4v24.9H281.9L281.9,90.3z M321.1,90.3v-5.5H321c-2.8,4.4-6.8,6.5-11.9,6.5
			c-4,0-7.1-1.1-9.3-3.2c-2.3-2.2-3.4-5.1-3.4-8.7c0-7.8,4.4-12.3,13.2-13.3l11.7-1.6c0-5.5-2.5-8.2-7.6-8.2
			c-4.8,0-9.3,1.5-13.3,4.5v-8c1.5-0.9,3.7-1.7,6.5-2.5c2.9-0.7,5.4-1.1,7.8-1.1c10.4,0,15.5,5.2,15.5,15.7v25.5H321.1L321.1,90.3z
			 M312.5,71.9c-2.7,0.3-4.6,1-5.7,2c-1.1,1-1.6,2.5-1.6,4.5c0,1.7,0.6,3.1,1.8,4.1c1.2,1,2.8,1.6,4.8,1.6c2.7,0,4.9-0.9,6.7-2.8
			c1.8-1.9,2.6-4.2,2.6-7v-3.6L312.5,71.9L312.5,71.9z M360.5,58.9c-1.5-0.9-3.2-1.4-5.3-1.4c-2.6,0-4.8,1.1-6.4,3.4
			c-1.6,2.3-2.4,5.2-2.4,8.8v20.6h-9.1V50.1h9.1v7.8h0.2c1.9-5.7,5.4-8.5,10.3-8.5c1.6,0,2.8,0.2,3.7,0.6L360.5,58.9L360.5,58.9z
			 M369.5,41.1c-1.5,0-2.9-0.5-3.9-1.5c-1.1-1-1.6-2.3-1.6-3.7c0-1.5,0.5-2.8,1.6-3.8c1.1-1,2.4-1.5,3.9-1.5c1.6,0,2.9,0.5,4,1.6
			c1.1,1,1.6,2.3,1.6,3.8c0,1.5-0.5,2.7-1.6,3.7C372.4,40.6,371.1,41.1,369.5,41.1z M364.9,90.3V50.1h9.1v40.3H364.9z M408.2,90.3
			V67.7c0-7.5-2.7-11.2-8-11.2c-2.7,0-5,1-6.8,3.1c-1.8,2-2.7,4.7-2.7,7.8v22.9h-9.1V50.1h9.1v6.4h0.2c2.9-5,7.3-7.4,13-7.4
			c9,0,13.4,5.5,13.4,16.5v24.7H408.2L408.2,90.3z M47.9,19.1c-2.8,0-5.5,1.6-6.8,4L19.4,60.6c-1.4,2.4-1.4,5.5,0,7.9L41,106.1
			c1.4,2.4,4.1,4,6.8,4H91c2.8,0,5.5-1.6,6.8-4l21.6-37.6c1.4-2.4,1.4-5.5,0-7.9L97.8,23.1c-1.4-2.4-4.1-4-6.8-4H47.9z M48.2,41.1
			c0.1,0,0.1,0,0.2,0h7.4c0.3,0,0.6,0.2,0.8,0.5l12.6,22.6c0.1,0.1,0.1,0.2,0.1,0.4c0-0.1,0.1-0.3,0.1-0.4l12.6-22.6
			c0.2-0.3,0.5-0.5,0.8-0.5h7.4c0.7,0,1.2,0.8,0.8,1.4L78.9,64.6l12.3,22.1c0.3,0.6-0.2,1.5-0.8,1.5H83c-0.3,0-0.7-0.2-0.8-0.5
			L69.5,65.1c-0.1-0.1-0.1-0.2-0.1-0.4c0,0.1-0.1,0.3-0.1,0.4L56.7,87.6c-0.2,0.3-0.5,0.5-0.8,0.5h-7.4c-0.7,0-1.2-0.9-0.8-1.5
			l12.3-22.1L47.6,42.5C47.3,42,47.6,41.2,48.2,41.1L48.2,41.1z"/>
	</g>
</g>
</svg>
