<?xml version="1.0" encoding="utf-8"?>
<!-- Generator: Adobe Illustrator 23.0.3, SVG Export Plug-In . SVG Version: 6.00 Build 0)  -->
<svg version="1.1"
	 id="Layer_1" inkscape:version="0.92.3 (2405546, 2018-03-11)" xmlns:cc="http://creativecommons.org/ns#" xmlns:dc="http://purl.org/dc/elements/1.1/" xmlns:inkscape="http://www.inkscape.org/namespaces/inkscape" xmlns:rdf="http://www.w3.org/1999/02/22-rdf-syntax-ns#" xmlns:sodipodi="http://sodipodi.sourceforge.net/DTD/sodipodi-0.dtd" xmlns:svg="http://www.w3.org/2000/svg"
	 xmlns="http://www.w3.org/2000/svg" xmlns:xlink="http://www.w3.org/1999/xlink" x="0px" y="0px" viewBox="0 0 64.1 65.9"
	 style="enable-background:new 0 0 64.1 65.9;" xml:space="preserve">
<style type="text/css">
	.st0{fill:#F1592A;}
</style>
<g transform="matrix(0.65762897,0,0,0.65762897,34.875476,4.8752901)">
	<g id="Layer_1-2">
		<path id="path8" inkscape:connector-curvature="0" class="st0" d="M-4.4,80.9c-20.5,0-37.9-17.3-38.1-38
			c-0.1-10.1,3.9-19.7,11-26.9c7.2-7.3,17-11.5,27.2-11.5l0,0c10.1,0,19.7,4,26.8,11.1c7.2,7,11.3,16.6,11.4,26.7
			C34,63.5,17,80.7-4.1,80.9H-4.4z M-4.3,6.5c-9.7,0.1-19,4-25.8,10.9c-6.7,6.7-10.5,15.9-10.5,25.4c0.2,19.6,16.6,36,36.1,36h0.3
			c20-0.2,36.1-16.5,36.1-36.5c-0.1-9.5-4-18.7-10.8-25.3C14.4,10.3,5.3,6.5-4.3,6.5z"/>
		<path id="path10" inkscape:connector-curvature="0" class="st0" d="M-33.9,53.9V31.6h5.4v2h-2.9v18.4h2.9v2L-33.9,53.9z"/>
		<path id="path12" inkscape:connector-curvature="0" class="st0" d="M-15.5,42.5c0,4.1-2.5,6.4-5.8,6.4s-5.6-2.6-5.6-6.2
			c0-3.7,2.3-6.4,5.8-6.4S-15.5,39.1-15.5,42.5z M-24.5,42.7c0,2.5,1.2,4.4,3.4,4.4s3.4-2,3.4-4.5c0-2.3-1.1-4.5-3.4-4.5
			S-24.6,40.3-24.5,42.7L-24.5,42.7z"/>
		<path id="path14" inkscape:connector-curvature="0" class="st0" d="M-13.6,36.8c1.1-0.2,2.1-0.3,3.2-0.3c1.2-0.1,2.4,0.2,3.5,0.8
			c0.8,0.5,1.3,1.3,1.3,2.3c0,1.2-0.8,2.3-2,2.6l0,0c1.4,0.3,2.5,1.5,2.5,3c0,1-0.4,1.9-1.2,2.5c-0.9,0.8-2.3,1.1-4.5,1.1
			c-0.9,0-1.8,0-2.7-0.2L-13.6,36.8z M-11.4,41.6h1.1c1.5,0,2.4-0.7,2.4-1.8s-0.9-1.7-2.3-1.7c-0.4,0-0.8,0-1.3,0.1L-11.4,41.6z
			 M-11.4,47.2c0.4,0,0.8,0.1,1.2,0c1.4,0,2.7-0.5,2.7-2s-1.2-2-2.8-2h-1.1V47.2z"/>
		<path id="path16" inkscape:connector-curvature="0" class="st0" d="M-0.8,36.6h2.2v7.9c0,3.3-1.6,4.5-4,4.5
			c-0.6,0-1.3-0.1-1.9-0.3l0.3-1.8c0.4,0.1,0.9,0.2,1.4,0.2c1.3,0,2-0.6,2-2.7L-0.8,36.6z"/>
		<path id="path18" inkscape:connector-curvature="0" class="st0" d="M7.7,43.2v1.5H3.1v-1.5H7.7z"/>
		<path id="path20" inkscape:connector-curvature="0" class="st0" d="M18.4,48.4c-1,0.4-2.1,0.6-3.1,0.5c-3.8,0-6.2-2.4-6.2-6.1
			c-0.2-3.4,2.4-6.2,5.8-6.4c0.2,0,0.5,0,0.7,0c1,0,2.1,0.1,3,0.5l-0.5,1.8c-0.8-0.3-1.6-0.5-2.4-0.5c-2.5,0-4.3,1.5-4.3,4.5
			c0,2.7,1.6,4.4,4.2,4.4c0.8,0,1.6-0.1,2.4-0.5L18.4,48.4z"/>
		<path id="path22" inkscape:connector-curvature="0" class="st0" d="M25.4,31.5v22.4h-5.4v-2h2.9V33.5h-2.9v-2H25.4z"/>
	</g>
</g>
</svg>
