<?xml version="1.0" encoding="utf-8"?>
<!-- Generator: Adobe Illustrator 23.0.3, SVG Export Plug-In . SVG Version: 6.00 Build 0)  -->
<svg version="1.1" id="Layer_1" xmlns="http://www.w3.org/2000/svg" xmlns:xlink="http://www.w3.org/1999/xlink" x="0px" y="0px"
	 viewBox="0 0 40 36" style="enable-background:new 0 0 40 36;" xml:space="preserve">
<style type="text/css">
	.st0{fill:url(#SVGID_1_);}
</style>
<linearGradient id="SVGID_1_" gradientUnits="userSpaceOnUse" x1="-269.5086" y1="427.4406" x2="-269.5086" y2="426.6373" gradientTransform="matrix(39.6201 0 0 -35.5033 10697.7578 15179.0381)">
	<stop  offset="0" style="stop-color:#F88A36"/>
	<stop  offset="1" style="stop-color:#FD2020"/>
</linearGradient>
<path class="st0" d="M27.9,30c-3.7,2.2-8.9,2.4-14.1,0.2c-4.2-1.8-7.7-4.9-9.9-8.5C5,22.6,6.2,23.3,7.6,24c5.4,2.5,10.7,2.3,14.5,0
	c0,0,0,0,0,0c-5.4-4.1-9.9-9.5-13.3-13.8C8,9.4,7.5,8.5,6.9,7.7c4.1,3.8,10.6,8.5,13,9.8C15,12.3,10.6,5.9,10.8,6.1
	c7.8,7.9,15,12.3,15,12.3c0.2,0.1,0.4,0.2,0.6,0.3c0.2-0.4,0.3-0.8,0.4-1.2c1.3-4.6-0.2-9.7-3.3-14C30.7,7.9,35,16.1,33.2,23
	c0,0.2-0.1,0.4-0.2,0.5c0,0,0,0.1,0.1,0.1c3.6,4.5,2.6,9.2,2.1,8.3C33.3,28.1,29.7,29.3,27.9,30L27.9,30z"/>
</svg>
