<?xml version="1.0" encoding="utf-8"?>
<!-- Generator: Adobe Illustrator 23.0.3, SVG Export Plug-In . SVG Version: 6.00 Build 0)  -->
<svg version="1.1" id="Layer_1" xmlns="http://www.w3.org/2000/svg" xmlns:xlink="http://www.w3.org/1999/xlink" x="0px" y="0px"
	 viewBox="0 0 316 204.2" style="enable-background:new 0 0 316 204.2;" xml:space="preserve">
<style type="text/css">
	.st0{fill:#252F3E;}
	.st1{fill-rule:evenodd;clip-rule:evenodd;fill:#FF9900;}
</style>
<g>
	<path class="st0" d="M103.9,81.8c0,3,0.3,5.5,0.9,7.3c0.7,1.8,1.5,3.8,2.6,5.9c0.4,0.7,0.6,1.3,0.6,1.9c0,0.8-0.5,1.6-1.6,2.5
		l-5.2,3.5c-0.7,0.5-1.5,0.7-2.1,0.7c-0.8,0-1.6-0.4-2.5-1.2c-1.2-1.2-2.1-2.6-3-3.9c-0.8-1.4-1.6-3-2.6-4.9
		c-6.4,7.6-14.5,11.4-24.2,11.4c-6.9,0-12.4-2-16.5-5.9s-6.1-9.2-6.1-15.8c0-7,2.5-12.7,7.5-17S63.6,60,72.1,60
		c2.8,0,5.7,0.2,8.7,0.7s6.2,1.1,9.5,1.8v-6c0-6.3-1.3-10.6-3.9-13.2c-2.6-2.6-7.1-3.8-13.4-3.8c-2.9,0-5.9,0.3-8.9,1.1
		c-3,0.7-6,1.6-8.9,2.8c-1.3,0.6-2.3,0.9-2.9,1.1s-1,0.2-1.3,0.2c-1.2,0-1.7-0.8-1.7-2.6v-4c0-1.3,0.2-2.3,0.6-2.9
		c0.4-0.6,1.2-1.2,2.3-1.7c2.9-1.5,6.3-2.7,10.4-3.7c4-1.1,8.3-1.6,12.9-1.6c9.8,0,17,2.2,21.6,6.7c4.5,4.4,6.8,11.2,6.8,20.3v26.7
		H103.9z M70.5,94.4c2.7,0,5.5-0.5,8.5-1.5s5.6-2.8,7.8-5.3c1.3-1.6,2.3-3.3,2.8-5.3c0.5-2,0.8-4.4,0.8-7.2v-3.5
		c-2.4-0.6-4.9-1.1-7.6-1.4c-2.6-0.3-5.2-0.5-7.7-0.5c-5.5,0-9.6,1.1-12.3,3.3c-2.7,2.2-4,5.4-4,9.5c0,3.9,1,6.8,3,8.7
		C63.8,93.4,66.7,94.4,70.5,94.4z M136.7,103.3c-1.5,0-2.5-0.2-3.1-0.8c-0.7-0.5-1.2-1.6-1.7-3.2l-19.4-63.7
		c-0.5-1.6-0.7-2.7-0.7-3.3c0-1.3,0.7-2.1,2-2.1h8.1c1.6,0,2.6,0.2,3.2,0.8c0.7,0.5,1.2,1.6,1.6,3.2l13.8,54.6l12.9-54.6
		c0.4-1.6,0.9-2.7,1.6-3.2c0.7-0.5,1.8-0.8,3.3-0.8h6.6c1.6,0,2.6,0.2,3.3,0.8c0.7,0.5,1.2,1.6,1.6,3.2l13,55.2l14.3-55.2
		c0.5-1.6,1.1-2.7,1.6-3.2c0.7-0.5,1.7-0.8,3.2-0.8h7.7c1.3,0,2.1,0.7,2.1,2.1c0,0.4-0.1,0.8-0.2,1.3c-0.1,0.5-0.2,1.2-0.6,2.1
		l-19.9,63.7c-0.5,1.6-1.1,2.7-1.7,3.2c-0.7,0.5-1.7,0.8-3.1,0.8h-7.1c-1.6,0-2.6-0.2-3.3-0.8c-0.7-0.6-1.2-1.6-1.6-3.3l-12.8-53.2
		l-12.7,53.1c-0.4,1.6-0.9,2.7-1.6,3.3s-1.8,0.8-3.3,0.8H136.7z M242.5,105.5c-4.3,0-8.6-0.5-12.7-1.5c-4.1-1-7.3-2.1-9.5-3.3
		c-1.3-0.7-2.2-1.6-2.6-2.3s-0.5-1.6-0.5-2.3v-4.2c0-1.7,0.7-2.6,1.9-2.6c0.5,0,1,0.1,1.5,0.2s1.2,0.5,2.1,0.8
		c2.8,1.2,5.9,2.2,9.1,2.9c3.3,0.7,6.5,1,9.8,1c5.2,0,9.2-0.9,12-2.7c2.8-1.8,4.3-4.4,4.3-7.8c0-2.3-0.7-4.2-2.2-5.8
		c-1.5-1.6-4.3-3-8.3-4.3L235.5,70c-6-1.9-10.5-4.7-13.2-8.4c-2.7-3.6-4.1-7.7-4.1-11.9c0-3.5,0.7-6.5,2.2-9.1s3.5-4.9,5.9-6.8
		c2.5-1.9,5.3-3.3,8.6-4.3c3.3-1,6.8-1.4,10.4-1.4c1.8,0,3.7,0.1,5.5,0.3c1.9,0.2,3.6,0.6,5.4,0.9c1.6,0.4,3.2,0.8,4.7,1.3
		c1.5,0.5,2.6,1,3.5,1.5c1.2,0.7,2,1.3,2.5,2.1c0.5,0.7,0.7,1.6,0.7,2.7v3.9c0,1.7-0.7,2.6-1.9,2.6c-0.7,0-1.7-0.3-3.1-1
		c-4.7-2.1-10-3.2-15.8-3.2c-4.7,0-8.4,0.7-11,2.3c-2.6,1.6-3.9,4-3.9,7.3c0,2.3,0.8,4.3,2.5,5.9c1.6,1.6,4.7,3.1,9.1,4.5l11.7,3.7
		c5.9,1.9,10.2,4.5,12.8,7.9c2.6,3.4,3.8,7.3,3.8,11.5c0,3.5-0.7,6.8-2.1,9.6c-1.5,2.8-3.5,5.3-6,7.3c-2.6,2.1-5.6,3.5-9.1,4.6
		C250.6,104.9,246.8,105.5,242.5,105.5z"/>
	<g>
		<path class="st1" d="M258.1,145.5c-27.1,20-66.5,30.7-100.4,30.7c-47.5,0-90.2-17.6-122.5-46.7c-2.6-2.3-0.2-5.4,2.8-3.6
			c34.9,20.3,78,32.5,122.6,32.5c30.1,0,63.1-6.3,93.5-19.1C258.7,137.2,262.6,142.2,258.1,145.5z"/>
		<path class="st1" d="M269.4,132.7c-3.5-4.4-22.9-2.1-31.7-1.1c-2.6,0.3-3-2-0.7-3.7c15.5-10.9,41-7.7,43.9-4.1
			c3,3.7-0.8,29.2-15.3,41.4c-2.2,1.9-4.4,0.9-3.4-1.6C265.5,155.4,272.9,137,269.4,132.7z"/>
	</g>
</g>
</svg>
