<?xml version="1.0" encoding="utf-8"?>
<!-- Generator: Adobe Illustrator 23.0.3, SVG Export Plug-In . SVG Version: 6.00 Build 0)  -->
<svg version="1.1" id="Layer_1" xmlns="http://www.w3.org/2000/svg" xmlns:xlink="http://www.w3.org/1999/xlink" x="0px" y="0px"
	 viewBox="0 0 306 344.4" style="enable-background:new 0 0 306 344.4;" xml:space="preserve">
<style type="text/css">
	.st0{fill:#00599C;}
	.st1{fill:#004482;}
	.st2{fill:#659AD2;}
	.st3{fill:#FFFFFF;}
</style>
<path class="st0" d="M283.6,247.6c2.1-3.6,3.4-7.7,3.4-11.4V108.2c0-3.7-1.3-7.8-3.4-11.4L153,172.2L283.6,247.6z"/>
<path class="st1" d="M164.6,320.2l110.8-64c3.2-1.8,6.1-5,8.2-8.7L153,172.2L22.4,247.6c2.1,3.6,5,6.8,8.2,8.7l110.8,64
	C147.8,323.9,158.2,323.9,164.6,320.2z"/>
<path class="st2" d="M283.6,96.8c-2.1-3.6-5-6.8-8.2-8.7l-110.8-64c-6.4-3.7-16.8-3.7-23.2,0l-110.8,64C24.2,91.8,19,100.8,19,108.2
	v127.9c0,3.7,1.3,7.8,3.4,11.4L153,172.2L283.6,96.8z"/>
<g>
	<path class="st3" d="M153,261.5c-49.3,0-89.3-40.1-89.3-89.3s40.1-89.3,89.3-89.3c31.8,0,61.4,17.1,77.4,44.6l-38.7,22.4
		c-8-13.8-22.8-22.3-38.7-22.3c-24.6,0-44.7,20-44.7,44.7c0,24.6,20,44.7,44.7,44.7c15.9,0,30.7-8.6,38.7-22.3l38.7,22.4
		C214.4,244.4,184.8,261.5,153,261.5z"/>
</g>
<g>
	<polygon class="st3" points="242.3,167.2 232.4,167.2 232.4,157.3 222.5,157.3 222.5,167.2 212.6,167.2 212.6,177.1 222.5,177.1 
		222.5,187.1 232.4,187.1 232.4,177.1 242.3,177.1 	"/>
</g>
<g>
	<polygon class="st3" points="279.6,167.2 269.6,167.2 269.6,157.3 259.7,157.3 259.7,167.2 249.8,167.2 249.8,177.1 259.7,177.1 
		259.7,187.1 269.6,187.1 269.6,177.1 279.6,177.1 	"/>
</g>
</svg>
