<?xml version="1.0" encoding="utf-8"?>
<!-- Generator: Adobe Illustrator 23.0.3, SVG Export Plug-In . SVG Version: 6.00 Build 0)  -->
<svg version="1.1" id="Layer_1" xmlns="http://www.w3.org/2000/svg" xmlns:xlink="http://www.w3.org/1999/xlink" x="0px" y="0px"
	 viewBox="0 0 294 345" style="enable-background:new 0 0 294 345;" xml:space="preserve">
<style type="text/css">
	.st0{fill:#A4C639;stroke:#FFFFFF;stroke-width:12.7888;}
	.st1{fill:#A4C639;stroke:#FFFFFF;stroke-width:6.3944;}
	.st2{fill:#A4C639;}
	.st3{fill:#FFFFFF;stroke:#FFFFFF;stroke-width:6.3944;}
</style>
<ellipse class="st0" cx="147" cy="117.9" rx="80.8" ry="74.6"/>
<path class="st0" d="M85.7,99.2h122.6c10.8,0,19.5,8.7,19.5,19.5v122.6c0,10.8-8.7,19.5-19.5,19.5H85.7c-10.8,0-19.5-8.7-19.5-19.5
	V118.8C66.2,108,74.9,99.2,85.7,99.2z"/>
<path class="st1" d="M94,23.5L94,23.5c-2.8,1.5-3.8,5.1-2.3,7.8L123.2,88c1.5,2.8,5.1,3.8,7.8,2.3l0,0c2.8-1.5,3.8-5.1,2.3-7.8
	l-31.4-56.7C100.3,23,96.8,21.9,94,23.5z"/>
<path id="c" class="st1" d="M252.7,117.9L252.7,117.9c-11.8,0-21.3,9.5-21.3,21.3v75.5c0,11.8,9.5,21.3,21.3,21.3l0,0
	c11.8,0,21.3-9.5,21.3-21.3v-75.5C274,127.4,264.5,117.9,252.7,117.9z"/>
<path class="st1" d="M177.2,204L177.2,204c-11.8,0-21.3,9.5-21.3,21.3v75.5c0,11.8,9.5,21.3,21.3,21.3l0,0
	c11.8,0,21.3-9.5,21.3-21.3v-75.5C198.5,213.6,189,204,177.2,204z"/>
<path class="st1" d="M200,23.5L200,23.5c2.8,1.5,3.8,5.1,2.3,7.8L170.8,88c-1.5,2.8-5.1,3.8-7.8,2.3l0,0c-2.8-1.5-3.8-5.1-2.3-7.8
	l31.4-56.7C193.7,23,197.2,21.9,200,23.5z"/>
<path class="st1" d="M41.3,117.9L41.3,117.9c11.8,0,21.3,9.5,21.3,21.3v75.5c0,11.8-9.5,21.3-21.3,21.3l0,0
	c-11.8,0-21.3-9.5-21.3-21.3v-75.5C20,127.4,29.5,117.9,41.3,117.9z"/>
<path class="st1" d="M116.8,204L116.8,204c11.8,0,21.3,9.5,21.3,21.3v75.5c0,11.8-9.5,21.3-21.3,21.3l0,0
	c-11.8,0-21.3-9.5-21.3-21.3v-75.5C95.5,213.6,105,204,116.8,204z"/>
<ellipse class="st2" cx="147" cy="117.9" rx="80.8" ry="74.6"/>
<path class="st2" d="M85.7,99.2h122.6c10.8,0,19.5,8.7,19.5,19.5v122.6c0,10.8-8.7,19.5-19.5,19.5H85.7c-10.8,0-19.5-8.7-19.5-19.5
	V118.8C66.2,108,74.9,99.2,85.7,99.2z"/>
<path class="st3" d="M62.6,121h168.7"/>
<circle class="st3" cx="109.7" cy="81.5" r="3.6"/>
<circle class="st3" cx="184.3" cy="81.5" r="3.6"/>
</svg>
